<svg version="1.1" xmlns="http://www.w3.org/2000/svg" viewBox="0 0 916.36279296875 542.7306518554688" width="916.36279296875" height="542.7306518554688">
  <!-- svg-source:excalidraw -->
  
  <defs>
    <style class="style-fonts">
      @font-face {
        font-family: "Virgil";
        src: url("https://excalidraw.com/Virgil.woff2");
      }
      @font-face {
        font-family: "Cascadia";
        src: url("https://excalidraw.com/Cascadia.woff2");
      }
    </style>
    
  </defs>
  <rect x="0" y="0" width="916.36279296875" height="542.7306518554688" fill="#ffffff"></rect><g transform="translate(364.7154541015625 26.768524169921875) rotate(0 85.43993377685547 12.5)"><text x="85.43993377685547" y="0" font-family="Virgil, Segoe UI Emoji" font-size="20px" fill="#1e1e1e" text-anchor="middle" style="white-space: pre;" direction="ltr" dominant-baseline="text-before-edge">lab.astr0rack.net</text></g><g stroke-linecap="round" transform="translate(10 10) rotate(0 448.181396484375 261.3653259277344)"><path d="M32 0 M32 0 C335.33 -0.89, 637.53 -0.47, 864.36 0 M32 0 C234.46 3.24, 436.45 3.16, 864.36 0 M864.36 0 C884.99 1.12, 895.12 12.34, 896.36 32 M864.36 0 C885.96 -1.72, 896.89 11.42, 896.36 32 M896.36 32 C897.33 140.58, 896.69 248.45, 896.36 490.73 M896.36 32 C895.83 157.44, 895.99 282.7, 896.36 490.73 M896.36 490.73 C896.89 510.98, 884.71 521.03, 864.36 522.73 M896.36 490.73 C895.3 510.53, 886.02 524.44, 864.36 522.73 M864.36 522.73 C688.33 525.01, 511.28 523.8, 32 522.73 M864.36 522.73 C691.07 522.25, 518.86 521.98, 32 522.73 M32 522.73 C11.53 524, 0.66 511.01, 0 490.73 M32 522.73 C9.76 523.26, -0.67 511.13, 0 490.73 M0 490.73 C-1.46 314.35, -0.07 138.32, 0 32 M0 490.73 C0.72 327.27, 0.1 164.67, 0 32 M0 32 C0.53 12.18, 11.81 1, 32 0 M0 32 C0.91 10.44, 8.61 -1.46, 32 0" stroke="#e03131" stroke-width="1" fill="none"></path></g><g stroke-linecap="round" transform="translate(332.63996302169494 101.93550124271474) rotate(0 273.5 201.5)"><path d="M7.86 8.16 C7.86 8.16, 7.86 8.16, 7.86 8.16 M7.86 8.16 C7.86 8.16, 7.86 8.16, 7.86 8.16 M3.66 19.09 C7.41 12.41, 15.09 7.89, 18.1 2.48 M3.66 19.09 C6.7 14.68, 11.24 10.41, 18.1 2.48 M2.75 26.24 C11.63 17.36, 16.59 10.97, 24.4 1.33 M2.75 26.24 C10.35 16.84, 17.91 9.84, 24.4 1.33 M1.83 33.39 C9.25 21.5, 21.49 13.56, 30.7 0.18 M1.83 33.39 C9.72 25.3, 16.22 16.66, 30.7 0.18 M1.57 39.79 C8.64 30.11, 17.33 21.61, 34.37 2.05 M1.57 39.79 C11.98 27.73, 21.06 15.96, 34.37 2.05 M1.96 45.43 C12.98 32.48, 28.21 18.47, 39.36 2.41 M1.96 45.43 C14.51 31.65, 25.65 18.07, 39.36 2.41 M1.7 51.83 C12.91 38.31, 24.47 22.99, 45 2.02 M1.7 51.83 C13.65 38.1, 26.05 22.69, 45 2.02 M1.44 58.23 C19.01 40.52, 36.35 18.85, 49.99 2.38 M1.44 58.23 C15.94 40.82, 28.91 24.96, 49.99 2.38 M1.83 63.87 C13.28 49.92, 23.8 37.04, 55.63 1.98 M1.83 63.87 C16.96 48.47, 30.21 31.81, 55.63 1.98 M1.57 70.27 C18.96 49.7, 39.39 27.63, 60.62 2.34 M1.57 70.27 C22.65 47.46, 41.12 25.51, 60.62 2.34 M1.97 75.91 C19.7 54.2, 40.14 34.33, 66.26 1.95 M1.97 75.91 C18.12 56.74, 35.56 38.37, 66.26 1.95 M1.71 82.31 C24.05 58.53, 45.93 31.02, 71.25 2.31 M1.71 82.31 C20.11 61.67, 38.65 39.48, 71.25 2.31 M1.44 88.71 C25.16 61.38, 52.21 34.73, 76.89 1.91 M1.44 88.71 C21.62 65.14, 43.6 42.35, 76.89 1.91 M1.84 94.35 C27.11 69.57, 49.95 41.24, 81.88 2.27 M1.84 94.35 C25.03 65.67, 49.88 38.31, 81.88 2.27 M1.58 100.75 C29.32 67.3, 56.94 35.06, 87.52 1.88 M1.58 100.75 C30.86 68.45, 57.93 34.97, 87.52 1.88 M1.97 106.39 C32.32 73.88, 61.89 40, 92.51 2.24 M1.97 106.39 C27.49 76.78, 52.73 46.26, 92.51 2.24 M1.71 112.79 C26.47 84.76, 53.35 53.69, 98.15 1.85 M1.71 112.79 C28.94 82.79, 55.37 51.7, 98.15 1.85 M1.45 119.19 C30.33 84.86, 61.39 51.21, 103.14 2.21 M1.45 119.19 C25.31 89.53, 51.46 59.96, 103.14 2.21 M1.84 124.83 C36.57 82.87, 73.56 43.02, 108.78 1.81 M1.84 124.83 C40.38 78.67, 79.34 33.6, 108.78 1.81 M1.58 131.23 C30.76 98.29, 62.43 63.43, 113.77 2.17 M1.58 131.23 C31.37 97.61, 60.22 63.99, 113.77 2.17 M1.98 136.87 C38.13 94.95, 71.16 54.82, 119.41 1.78 M1.98 136.87 C32.84 101.99, 62.03 68.37, 119.41 1.78 M1.72 143.27 C38.11 99.13, 79.96 52.07, 124.4 2.14 M1.72 143.27 C48.13 89.27, 95.29 36.25, 124.4 2.14 M1.45 149.67 C40.93 106, 78.89 62.75, 130.04 1.74 M1.45 149.67 C31.13 117.28, 59.13 86.2, 130.04 1.74 M1.85 155.31 C37.26 112.81, 74.97 74.62, 135.03 2.1 M1.85 155.31 C43.64 108.61, 83.68 62.63, 135.03 2.1 M1.59 161.71 C37.65 116.98, 76.65 75.22, 140.67 1.71 M1.59 161.71 C51.32 105.36, 100.96 48.47, 140.67 1.71 M1.98 167.35 C54 105.76, 107.4 46.24, 145.66 2.07 M1.98 167.35 C45.99 112.89, 92.84 60.48, 145.66 2.07 M1.72 173.75 C57.29 110.94, 110.84 46.86, 150.65 2.43 M1.72 173.75 C55.48 111.63, 109.74 49.36, 150.65 2.43 M1.46 180.14 C36.18 138.5, 73.4 96.26, 156.29 2.03 M1.46 180.14 C53.11 119.71, 105.73 61.24, 156.29 2.03 M1.85 185.79 C47.92 137.17, 90.14 88.2, 161.28 2.39 M1.85 185.79 C58.61 120.94, 114.9 56.12, 161.28 2.39 M1.59 192.19 C47.16 141.1, 91.38 89.01, 166.92 2 M1.59 192.19 C46.42 142.53, 91.66 90.09, 166.92 2 M1.99 197.83 C53.72 140.53, 103.12 81.01, 171.91 2.36 M1.99 197.83 C47.38 147.68, 91.24 97.77, 171.91 2.36 M1.72 204.23 C51.6 147.87, 98.12 92.84, 177.55 1.96 M1.72 204.23 C48.81 151.04, 95.89 98.54, 177.55 1.96 M1.46 210.62 C60.43 142.33, 121.73 70.93, 182.54 2.32 M1.46 210.62 C41.1 165.77, 80.15 120.38, 182.54 2.32 M1.86 216.27 C41.36 169.8, 86.4 119.83, 188.18 1.93 M1.86 216.27 C51.44 161.36, 99.24 105.56, 188.18 1.93 M1.6 222.66 C51.15 165.05, 101.27 106.98, 193.17 2.29 M1.6 222.66 C73.37 138.9, 145.25 56.95, 193.17 2.29 M1.99 228.31 C60.1 160.34, 121.6 92.23, 198.81 1.9 M1.99 228.31 C42.49 182.92, 82.86 135.87, 198.81 1.9 M1.73 234.71 C70.63 157.07, 138.69 79.38, 203.8 2.26 M1.73 234.71 C59.35 164.87, 119.91 95.5, 203.8 2.26 M1.47 241.1 C53.47 181.73, 105.57 121.81, 209.44 1.86 M1.47 241.1 C62.03 171.76, 122.13 102.68, 209.44 1.86 M1.86 246.75 C49 194.64, 93.92 143.52, 214.43 2.22 M1.86 246.75 C78.88 157.24, 156.43 68.43, 214.43 2.22 M1.6 253.14 C49.43 197.39, 98.61 139.95, 220.07 1.83 M1.6 253.14 C63.94 183.82, 124.18 113.16, 220.07 1.83 M2 258.79 C74.07 174.58, 148.4 90.29, 225.06 2.19 M2 258.79 C83.76 165.05, 165.25 71.8, 225.06 2.19 M1.73 265.19 C80.73 174.17, 163.69 79.74, 230.7 1.79 M1.73 265.19 C88.31 164.27, 173.73 66.27, 230.7 1.79 M1.47 271.58 C73.93 185.93, 147.29 102.27, 235.69 2.15 M1.47 271.58 C69.71 190.59, 140.24 109.34, 235.69 2.15 M1.87 277.23 C88.02 177.62, 175.94 80.04, 241.33 1.76 M1.87 277.23 C96.34 169.06, 190.32 61.35, 241.33 1.76 M1.61 283.62 C93.32 179.6, 184.95 72.45, 246.32 2.12 M1.61 283.62 C96.73 173.6, 191.03 65.61, 246.32 2.12 M2 289.27 C89.24 188.75, 175.78 89.81, 251.96 1.72 M2 289.27 C86.66 192.76, 172.15 96.18, 251.96 1.72 M1.74 295.66 C86.35 199.94, 169.27 104.74, 256.95 2.08 M1.74 295.66 C65.1 224.14, 128.48 152.89, 256.95 2.08 M1.48 302.06 C56.37 236.95, 111.72 172.46, 262.59 1.69 M1.48 302.06 C69.36 224.73, 137.11 148.27, 262.59 1.69 M1.87 307.71 C91.98 201.7, 182.57 97.4, 267.58 2.05 M1.87 307.71 C85.23 208.68, 170.08 111.25, 267.58 2.05 M1.61 314.1 C66.95 239.87, 130.55 166.46, 272.56 2.41 M1.61 314.1 C105.86 194.31, 211.44 73.13, 272.56 2.41 M2.01 319.75 C59.02 252.4, 115.86 188.18, 278.21 2.01 M2.01 319.75 C73.14 236.93, 144.57 154.11, 278.21 2.01 M1.74 326.14 C84.03 230.5, 167.98 135.49, 283.19 2.37 M1.74 326.14 C110.92 197.36, 221.78 70.83, 283.19 2.37 M1.48 332.54 C83.5 237.1, 164.24 144.8, 288.84 1.98 M1.48 332.54 C97.52 223.67, 193.16 113.35, 288.84 1.98 M1.88 338.19 C73.7 257.26, 144.46 174.66, 293.82 2.34 M1.88 338.19 C100.73 222.62, 200.43 108.82, 293.82 2.34 M1.62 344.58 C98.42 234.76, 194.55 125.69, 299.47 1.94 M1.62 344.58 C63.96 270.46, 127.67 197.58, 299.47 1.94 M2.01 350.23 C100.22 239.31, 198.4 127.39, 304.45 2.3 M2.01 350.23 C96.52 239.74, 190.76 130.74, 304.45 2.3 M1.75 356.62 C82.85 262.49, 163.5 170.4, 310.1 1.91 M1.75 356.62 C123.57 216.49, 244.92 77.98, 310.1 1.91 M1.49 363.02 C119.16 231.28, 233.25 99.01, 315.08 2.27 M1.49 363.02 C67.35 287.23, 132.69 211.44, 315.08 2.27 M1.88 368.66 C75.69 282.38, 148.58 197.93, 320.73 1.88 M1.88 368.66 C119.32 233.88, 236.39 99.35, 320.73 1.88 M2.93 373.55 C68.49 299.08, 133.48 224.36, 325.71 2.24 M2.93 373.55 C110.28 250.31, 217.7 127.43, 325.71 2.24 M3.98 378.44 C115.58 249.01, 227.29 120.81, 331.36 1.84 M3.98 378.44 C86.89 281.35, 171.02 184.78, 331.36 1.84 M3.07 385.59 C79.16 300.69, 154.67 212.84, 336.34 2.2 M3.07 385.59 C71.78 307.6, 140.17 228.49, 336.34 2.2 M4.77 389.73 C103.93 274.63, 203.11 159.49, 341.99 1.81 M4.77 389.73 C134 240.38, 263.47 91.14, 341.99 1.81 M7.14 393.11 C89.37 298.67, 172.18 203.83, 346.97 2.17 M7.14 393.11 C130.34 251.56, 252.92 110.39, 346.97 2.17 M10.15 395.73 C138.81 245.32, 270.47 95.23, 352.62 1.77 M10.15 395.73 C112 280.04, 211.88 164.39, 352.62 1.77 M12.52 399.11 C92.53 308.48, 171.58 217.48, 357.6 2.13 M12.52 399.11 C132.08 261.31, 251.65 123.33, 357.6 2.13 M16.85 400.22 C112.73 288.83, 207.37 179.51, 363.25 1.74 M16.85 400.22 C132.69 267.29, 247.45 135.29, 363.25 1.74 M21.18 401.34 C144.22 259.78, 269.51 116.05, 368.23 2.1 M21.18 401.34 C131.51 274.87, 241.8 148.62, 368.23 2.1 M24.85 403.21 C109.63 306.41, 193.99 209.38, 373.88 1.7 M24.85 403.21 C117.89 295.88, 210.9 189.62, 373.88 1.7 M29.84 403.57 C166.25 247.54, 301.13 92.8, 378.86 2.06 M29.84 403.57 C116.22 304.06, 202.37 205.22, 378.86 2.06 M34.17 404.68 C147.96 272.04, 263.59 138.84, 383.85 2.42 M34.17 404.68 C130.07 294.8, 224.95 185.77, 383.85 2.42 M39.16 405.04 C129.57 300.28, 220.14 194.13, 389.49 2.03 M39.16 405.04 C147.59 279.23, 257.56 153.1, 389.49 2.03 M44.8 404.65 C179.71 250.11, 313.4 96.24, 394.48 2.39 M44.8 404.65 C161.89 268.16, 279.69 132.91, 394.48 2.39 M49.79 405.01 C157.27 279.51, 266.94 155.57, 400.12 1.99 M49.79 405.01 C159.08 279.15, 270.68 151.53, 400.12 1.99 M55.43 404.61 C134.78 315.56, 213.9 225.82, 405.11 2.35 M55.43 404.61 C148.54 298.15, 241.76 190.92, 405.11 2.35 M60.42 404.97 C151.82 301.35, 241.22 198.7, 410.75 1.96 M60.42 404.97 C153.8 298.38, 245.39 192.05, 410.75 1.96 M66.06 404.58 C160.78 297.72, 253.76 190.11, 415.74 2.32 M66.06 404.58 C161.87 295.17, 256.98 185.4, 415.74 2.32 M71.05 404.94 C144.15 320.1, 217.55 235.68, 421.38 1.93 M71.05 404.94 C202.38 253.8, 333.4 104.04, 421.38 1.93 M76.69 404.55 C184.62 279.21, 294.82 152.85, 426.37 2.29 M76.69 404.55 C209.15 250.12, 342.59 96.27, 426.37 2.29 M81.68 404.91 C173.53 299.56, 266.48 194.85, 432.01 1.89 M81.68 404.91 C181.07 292.92, 279.82 179.48, 432.01 1.89 M87.32 404.51 C213.14 263.28, 336.36 119.84, 437 2.25 M87.32 404.51 C171.12 310.86, 253.83 216.27, 437 2.25 M92.31 404.87 C195.06 283.66, 299.94 163.88, 442.64 1.86 M92.31 404.87 C171.99 311.46, 252.6 218.94, 442.64 1.86 M97.95 404.48 C224.61 256.7, 352.72 110.19, 447.63 2.22 M97.95 404.48 C196.71 289.89, 295.8 175.95, 447.63 2.22 M102.94 404.84 C235.86 249.24, 370.75 94.2, 453.27 1.82 M102.94 404.84 C202.2 291.02, 300.54 178.01, 453.27 1.82 M108.58 404.44 C216.92 281.32, 325.53 156.76, 458.26 2.18 M108.58 404.44 C244.85 247.91, 381.4 90.38, 458.26 2.18 M113.57 404.8 C250.09 252.03, 384.36 96.98, 463.9 1.79 M113.57 404.8 C219.5 282.6, 325.12 161.26, 463.9 1.79 M118.56 405.16 C236.92 268.57, 354.33 134.26, 468.89 2.15 M118.56 405.16 C201.32 311.49, 283.36 217.37, 468.89 2.15 M124.2 404.77 C243.05 267.51, 361.41 132.37, 474.53 1.75 M124.2 404.77 C255.18 252.28, 386.52 101.07, 474.53 1.75 M129.19 405.13 C266.45 248.27, 401.92 92.43, 479.52 2.11 M129.19 405.13 C233.67 282.85, 339.87 160.81, 479.52 2.11 M134.83 404.73 C233.24 292.63, 331.38 179.03, 485.17 1.72 M134.83 404.73 C274.19 245.13, 414.51 83.62, 485.17 1.72 M139.82 405.09 C276.62 248.17, 411.77 92.92, 490.15 2.08 M139.82 405.09 C243.88 286.79, 347.71 167.56, 490.15 2.08 M145.46 404.7 C225.01 313.09, 305.22 220.58, 495.8 1.68 M145.46 404.7 C243.56 291.09, 342.12 177.29, 495.8 1.68 M150.45 405.06 C239.36 302.23, 326.79 200.84, 500.78 2.04 M150.45 405.06 C266.89 271.63, 383.28 138.09, 500.78 2.04 M156.09 404.66 C296.13 245.78, 434.33 87.01, 505.77 2.4 M156.09 404.66 C275.6 268.79, 395.13 131.56, 505.77 2.4 M161.08 405.02 C257.41 291.08, 356.44 178.22, 511.41 2.01 M161.08 405.02 C277.75 268.78, 394.99 133.87, 511.41 2.01 M166.72 404.63 C299.42 255.72, 428.41 105.25, 517.06 1.61 M166.72 404.63 C277.01 278.45, 385.63 153.28, 517.06 1.61 M171.71 404.99 C298.81 258.62, 426.42 111.53, 522.7 1.22 M171.71 404.99 C259.46 304.26, 346.14 204.22, 522.7 1.22 M177.35 404.6 C298.09 264.88, 417.98 127.69, 527.03 2.34 M177.35 404.6 C296.82 267.76, 414.94 131.47, 527.03 2.34 M182.34 404.96 C312.78 252.72, 444.18 101.11, 531.36 3.45 M182.34 404.96 C256.55 318.63, 332.68 231.59, 531.36 3.45 M187.98 404.56 C283.46 294.17, 378.69 182.1, 535.04 5.32 M187.98 404.56 C321.43 253.97, 452.61 102.93, 535.04 5.32 M192.97 404.92 C325.19 252.56, 457.69 99.82, 538.05 7.94 M192.97 404.92 C265.93 321.91, 338.28 238.31, 538.05 7.94 M198.61 404.53 C313.38 273.69, 427.38 141.75, 541.07 10.57 M198.61 404.53 C270.33 321.82, 341.42 240.56, 541.07 10.57 M203.6 404.89 C285.74 312.72, 365.98 219.69, 543.44 13.95 M203.6 404.89 C271.37 323.89, 340.13 244.72, 543.44 13.95 M209.24 404.49 C296.98 306.05, 381.9 206.52, 545.14 18.08 M209.24 404.49 C275.63 327.47, 342.74 250.12, 545.14 18.08 M214.23 404.85 C338.41 263.32, 462.95 119.33, 546.19 22.97 M214.23 404.85 C340.87 258.1, 468.68 110.5, 546.19 22.97 M219.87 404.46 C344.27 261.89, 466.76 121.35, 546.59 28.61 M219.87 404.46 C337.27 269.62, 454.56 135.02, 546.59 28.61 M224.86 404.82 C295.91 323.12, 367.52 240.96, 548.29 32.75 M224.86 404.82 C339.56 271.05, 455.65 137.61, 548.29 32.75 M230.5 404.42 C299.65 325.33, 367.24 245.76, 548.03 39.14 M230.5 404.42 C322.69 299.78, 414.11 194.25, 548.03 39.14 M235.49 404.78 C359.66 262.3, 484.02 119.3, 548.43 44.79 M235.49 404.78 C340.78 283.21, 445.64 162.34, 548.43 44.79 M240.47 405.14 C329.18 304.4, 416.44 203.57, 548.17 51.18 M240.47 405.14 C303.67 332.73, 367.93 258.74, 548.17 51.18 M246.12 404.75 C335.47 303.87, 423.61 203.26, 547.9 57.58 M246.12 404.75 C350.84 282.98, 455.86 163.16, 547.9 57.58 M251.1 405.11 C331.67 312.59, 411.69 218.24, 548.3 63.23 M251.1 405.11 C357.36 284.85, 462.62 163.74, 548.3 63.23 M256.75 404.71 C346.56 300.09, 434.99 198.45, 548.04 69.62 M256.75 404.71 C323.76 328.6, 390.01 252.48, 548.04 69.62 M261.73 405.07 C336.65 316.06, 413.95 227.17, 548.43 75.27 M261.73 405.07 C366.6 282.48, 473.24 160.11, 548.43 75.27 M267.38 404.68 C326.08 337.23, 384.22 269.06, 548.17 81.66 M267.38 404.68 C332.89 330.36, 398.6 255.53, 548.17 81.66 M272.36 405.04 C364.38 300.06, 458.12 193.41, 547.91 88.06 M272.36 405.04 C360.88 304.31, 449.04 204.38, 547.91 88.06 M278.01 404.65 C376.38 291.27, 477.03 175.54, 548.3 93.7 M278.01 404.65 C338.57 335.48, 399.21 265.95, 548.3 93.7 M282.99 405.01 C373.2 301.01, 461.9 198.66, 548.04 100.1 M282.99 405.01 C352.8 324.45, 422.74 244.59, 548.04 100.1 M288.64 404.61 C375.13 303.83, 463.62 204.97, 547.78 106.5 M288.64 404.61 C359.9 323.26, 432.96 239.47, 547.78 106.5 M293.62 404.97 C374.61 314.08, 453.96 222.1, 548.18 112.14 M293.62 404.97 C365.54 319.04, 439.23 235.86, 548.18 112.14 M299.27 404.58 C361.45 332.62, 423.52 262.68, 547.91 118.54 M299.27 404.58 C370 323.77, 441.19 240.65, 547.91 118.54 M304.25 404.94 C378.44 320.61, 452.31 234.5, 548.31 124.18 M304.25 404.94 C377.03 321.98, 448.08 240.66, 548.31 124.18 M309.9 404.54 C363.57 343.67, 418.1 279.97, 548.05 130.58 M309.9 404.54 C394.81 309.82, 478.67 212.6, 548.05 130.58 M314.89 404.9 C387.8 317.66, 463.67 232.49, 547.79 136.98 M314.89 404.9 C404.04 301.76, 492.71 199.9, 547.79 136.98 M320.53 404.51 C410.86 300.6, 502.31 195.2, 548.18 142.62 M320.53 404.51 C406.6 304.99, 493.7 204.3, 548.18 142.62 M325.52 404.87 C409.68 306.4, 492.75 210.46, 547.92 149.02 M325.52 404.87 C386.13 332.96, 447.97 261.95, 547.92 149.02 M331.16 404.47 C384.63 339.9, 440.06 278.38, 548.31 154.66 M331.16 404.47 C399.06 325.51, 467.36 247.53, 548.31 154.66 M336.15 404.83 C392.05 340.28, 449.92 275.25, 548.05 161.06 M336.15 404.83 C404.08 329.85, 469.51 254.11, 548.05 161.06 M341.79 404.44 C401.31 339.23, 460.34 271.11, 547.79 167.46 M341.79 404.44 C399.19 339.58, 455.52 273.37, 547.79 167.46 M346.78 404.8 C419.4 318.57, 495.91 233.66, 548.19 173.1 M346.78 404.8 C392.35 352.16, 438.56 298.34, 548.19 173.1 M351.76 405.16 C423.67 323.71, 495.94 239.68, 547.92 179.5 M351.76 405.16 C397.03 353.94, 440.58 302.48, 547.92 179.5 M357.41 404.76 C408.11 348.44, 457.17 291.64, 548.32 185.14 M357.41 404.76 C432.21 319.01, 506.67 231.94, 548.32 185.14 M362.39 405.12 C427.84 328.49, 494.6 250.42, 548.06 191.54 M362.39 405.12 C421.56 333.99, 483.18 262.03, 548.06 191.54 M368.04 404.73 C419.33 344.63, 470.94 284.38, 547.8 197.94 M368.04 404.73 C434.82 327.31, 500.81 251.13, 547.8 197.94 M373.02 405.09 C430.55 337.37, 487.04 273.01, 548.19 203.58 M373.02 405.09 C436.91 333.57, 500.46 260.18, 548.19 203.58 M378.67 404.69 C417.16 363.72, 453.28 322.35, 547.93 209.98 M378.67 404.69 C435.99 339.82, 493.99 273.64, 547.93 209.98 M383.65 405.05 C431.87 346.8, 483.21 291.51, 548.32 215.62 M383.65 405.05 C434.81 346.69, 485.77 288.51, 548.32 215.62 M389.3 404.66 C444.2 341.15, 502.12 275.66, 548.06 222.02 M389.3 404.66 C436.57 350.33, 484.19 295.33, 548.06 222.02 M394.28 405.02 C444.22 349.02, 488.47 296.28, 547.8 228.42 M394.28 405.02 C452.65 337.57, 511.24 272.26, 547.8 228.42 M399.93 404.63 C434.38 365.13, 468.96 324.98, 548.2 234.06 M399.93 404.63 C437.91 358.65, 477.14 313.9, 548.2 234.06 M404.91 404.99 C455.04 345.02, 507.29 285.98, 547.93 240.46 M404.91 404.99 C460.16 341.97, 512.92 281.16, 547.93 240.46 M410.56 404.59 C464.39 346.03, 514.29 286.71, 548.33 246.1 M410.56 404.59 C446.02 365.44, 479.63 328.01, 548.33 246.1 M415.54 404.95 C448.47 366.08, 484.86 326.79, 548.07 252.5 M415.54 404.95 C461.8 354.95, 505.43 303.41, 548.07 252.5 M421.19 404.56 C455.4 369.13, 486.16 331.76, 547.81 258.9 M421.19 404.56 C455.87 363.84, 491.36 324.85, 547.81 258.9 M426.17 404.92 C473.29 348.42, 520.88 294.25, 548.2 264.54 M426.17 404.92 C462.15 365.05, 497.27 323.65, 548.2 264.54 M431.82 404.52 C470.43 355.51, 511.46 310.24, 547.94 270.94 M431.82 404.52 C458.47 375.2, 483.72 346.86, 547.94 270.94 M436.8 404.88 C475.69 363.78, 513.07 318.18, 548.33 276.58 M436.8 404.88 C471.86 366.72, 506.6 327.36, 548.33 276.58 M442.45 404.49 C480.23 363.3, 513.46 319.88, 548.07 282.98 M442.45 404.49 C473.13 366.97, 505.84 330.27, 548.07 282.98 M447.43 404.85 C473.79 376.32, 500.96 344.2, 547.81 289.38 M447.43 404.85 C471.68 377.63, 494.16 351.43, 547.81 289.38 M453.08 404.45 C484.07 369.39, 511.03 338.66, 548.2 295.02 M453.08 404.45 C472.89 379.83, 494.03 354.94, 548.2 295.02 M458.06 404.81 C487.6 371.65, 514.19 340.12, 547.94 301.42 M458.06 404.81 C489.65 368.95, 521.51 332.31, 547.94 301.42 M463.05 405.17 C485.67 379.61, 504.2 353.29, 548.34 307.06 M463.05 405.17 C483.61 380.09, 505.3 354.61, 548.34 307.06 M468.69 404.78 C489.99 380.56, 507.51 360.59, 548.08 313.46 M468.69 404.78 C496.64 371.69, 524.14 340.01, 548.08 313.46 M473.68 405.14 C490.1 384.76, 510.87 367.45, 547.81 319.86 M473.68 405.14 C494.48 380.92, 514.66 355.36, 547.81 319.86 M479.32 404.74 C503.12 376.43, 528.61 347.43, 548.21 325.5 M479.32 404.74 C500.82 378.91, 524.56 350.67, 548.21 325.5 M484.31 405.1 C501.53 384.45, 518.85 366.98, 547.95 331.9 M484.31 405.1 C500.47 388.71, 515.13 371.39, 547.95 331.9 M489.95 404.71 C510.13 378.87, 532.72 353.62, 548.34 337.54 M489.95 404.71 C501.2 390.57, 514.84 376.83, 548.34 337.54 M494.94 405.07 C514 380.64, 531.64 358.59, 548.08 343.94 M494.94 405.07 C507.08 391.67, 516.72 378.04, 548.08 343.94 M500.58 404.68 C510.66 393.82, 520.4 382.44, 547.82 350.34 M500.58 404.68 C515.57 387.57, 531.04 371.35, 547.82 350.34 M505.57 405.04 C518.02 387.85, 532.03 372.12, 548.21 355.98 M505.57 405.04 C521.37 386.76, 536.65 370.41, 548.21 355.98 M511.21 404.64 C522.44 392.08, 536.74 375.66, 547.95 362.38 M511.21 404.64 C525.34 387.91, 539.66 372.58, 547.95 362.38 M516.86 404.25 C527.87 394.78, 535.42 383.63, 548.35 368.02 M516.86 404.25 C524.34 395.93, 531.45 388.94, 548.35 368.02 M522.5 403.85 C530.73 397, 534.7 390.43, 549.4 372.91 M522.5 403.85 C533.46 393, 543.21 381.37, 549.4 372.91 M529.46 401.95 C536.78 397.07, 539.89 390.17, 548.48 380.06 M529.46 401.95 C537.03 394.86, 542.39 387, 548.48 380.06" stroke="#ffec99" stroke-width="0.5" fill="none"></path><path d="M32 0 M32 0 C215.33 -1.14, 399.41 -1.08, 515 0 M32 0 C141.98 1.97, 251.47 1.48, 515 0 M515 0 C535.57 0.46, 547.54 11.06, 547 32 M515 0 C536.53 -2.16, 545.25 11.33, 547 32 M547 32 C547.05 122.28, 548.78 210.87, 547 371 M547 32 C545.19 163.84, 546.14 296.6, 547 371 M547 371 C548.52 391.06, 536.41 404.87, 515 403 M547 371 C545.91 394.03, 537.07 405.19, 515 403 M515 403 C368.93 405.19, 224.69 405.66, 32 403 M515 403 C371.34 402.76, 228.6 402.39, 32 403 M32 403 C12.35 401.96, 0.63 393.77, 0 371 M32 403 C11.48 403.2, -1.8 392.9, 0 371 M0 371 C0.44 254.9, 2.45 141.3, 0 32 M0 371 C0.42 280.78, 0.21 189.98, 0 32 M0 32 C0.25 9.39, 9.6 1.69, 32 0 M0 32 C-0.5 11.11, 12.37 0.61, 32 0" stroke="#1e1e1e" stroke-width="1" fill="none"></path></g><g transform="translate(568.2600039152496 290.93550124271474) rotate(0 37.87995910644531 12.5)"><text x="37.87995910644531" y="0" font-family="Virgil, Segoe UI Emoji" font-size="20px" fill="#1e1e1e" text-anchor="middle" style="white-space: pre;" direction="ltr" dominant-baseline="text-before-edge">proxmox</text></g><g stroke-linecap="round" transform="translate(101.15826416015625 227.28875732421875) rotate(0 65.99221801757812 63.18089294433594)"><path d="M14.36 24.41 C14.36 24.41, 14.36 24.41, 14.36 24.41 M14.36 24.41 C14.36 24.41, 14.36 24.41, 14.36 24.41 M8.74 39.11 C15.95 31.08, 22.17 21.17, 28.19 13.58 M8.67 37.06 C17.21 27.39, 24.66 19.34, 29.97 12.61 M1.61 49.54 C16.52 32.97, 32.26 16.86, 38.28 9.01 M2.72 51.55 C15.11 36.61, 27.87 21.15, 40.35 6.48 M3.64 52.39 C14.14 40.15, 25.89 27.73, 44.97 7.66 M5.02 53.6 C12.8 44.11, 22.38 32.88, 47.27 5.03 M6.57 60.84 C17.52 44.18, 30.49 29.57, 52.69 3.49 M5 60.77 C18.75 43.03, 34.46 26.48, 53.06 4.75 M3.81 66.26 C24.1 45, 41.69 25.57, 60.02 2.76 M5.54 66.37 C19.37 50.02, 32.59 32.16, 59.72 4.29 M5.57 69.27 C17.86 56.27, 29.95 42.23, 65.77 1.27 M5.85 70.87 C18.11 56.2, 30.85 41.19, 64.75 1.91 M5.62 76.79 C30.13 49.4, 55.32 23.31, 69.81 3.55 M5.95 77.1 C28.21 50.89, 50.58 26.14, 71.77 2.99 M4.79 82.23 C30.56 54.66, 51.6 28.52, 75.27 4.67 M5.95 84.74 C23.3 60.58, 44.03 38.1, 74.39 4.04 M9.09 87.27 C26.2 65.65, 44.51 45.29, 79.97 2.46 M7.95 86.33 C26.17 66.61, 44.22 45.1, 79.45 5.15 M8.05 92.62 C28.97 67.11, 51.89 43.33, 82.65 3.74 M10.02 90.33 C29.62 66.75, 52.75 41.36, 83 4.57 M12.02 95.5 C32.55 71.43, 50.06 47.48, 89.79 5.39 M11.41 94.77 C41.32 60.7, 69.81 29.29, 88.82 5.88 M15.1 99.15 C44.17 61.94, 75.39 27.04, 93.1 8.77 M15.08 97.06 C31.24 77.55, 47.22 59.02, 91.73 6.82 M16.65 99.3 C42.97 73.84, 68.18 45.33, 95.03 10.28 M17.05 100.74 C38.5 77.05, 58.27 52.18, 96.78 7.94 M18.07 103.49 C45.49 75.08, 69.56 47.87, 102.91 11.06 M18.88 104.94 C36.7 82.64, 55.83 61.9, 101.2 8.71 M18.98 106.47 C49.72 76.12, 75.88 48.39, 105.89 12.8 M21.67 108.19 C46.16 81.59, 70.38 52.3, 105.04 11.47 M24.08 111.8 C42.33 90.7, 62.15 67.44, 106.89 16.18 M24.57 110.09 C47.76 84.67, 68.51 60.28, 106.91 14.12 M26.67 112.54 C44.34 93.94, 60.95 75.15, 109.63 19.39 M28.14 112.42 C61.34 75.5, 93.55 36.18, 110.75 16.97 M32.08 115.02 C65.87 76.52, 97.11 39.48, 112.09 20.16 M31.48 115.02 C53.59 87.29, 75.58 62.29, 113.01 20.94 M33.89 115.33 C63.21 88.08, 88.33 59.52, 113.93 23.96 M34.21 116.63 C59 88.92, 84.41 60.52, 115.85 24.06 M37.43 119.58 C58.04 93.53, 78.92 71.27, 117.42 27.8 M37.74 119.36 C68.12 82.84, 100.45 48.21, 117.83 27.5 M43.21 120.14 C58.55 100.72, 73.87 83.45, 122.2 28.68 M42.41 121.15 C68.85 89.01, 98.73 55.36, 120.38 30.26 M44.54 122.65 C69.7 94.54, 91.34 71.05, 122.16 31.39 M44.89 123.11 C69.37 94.76, 93.36 67.71, 124.49 33.24 M46.93 126.27 C63.28 105.13, 83.07 85.26, 123.63 38.25 M49.34 125.93 C66.11 105.18, 84.99 85.51, 124.57 37.2 M53.59 125.65 C79.05 93.45, 104.03 65.13, 128.76 40.78 M54.63 124.16 C79.02 98.23, 101.71 69.88, 127.65 40.74 M60.37 125.49 C82.25 95.3, 108.34 66, 129.15 47.32 M59.05 125 C75.72 107.29, 91.7 86.83, 128.72 46.12 M63.83 127 C85.25 103.58, 104.34 77.75, 130.64 49.72 M64.1 125 C85.53 99.92, 109.01 72.55, 129.29 50.19 M70.08 127.65 C82.37 109.94, 97.08 93.99, 132.77 55.58 M69.13 126.08 C84.41 106.39, 102.24 88.04, 130.6 54.92 M73.63 126.15 C92.52 105.69, 107.87 87.14, 133.69 60.03 M73.92 126.78 C88.6 108.38, 103.16 92.11, 132.26 59.41 M80.25 128.02 C99.14 103.33, 118.7 81.8, 130.28 65.22 M79.26 126 C97.07 104.5, 117.03 84.25, 132.15 65.61 M88.36 122.98 C104.65 103.93, 120.57 84.86, 130.95 75.04 M88.11 122.73 C99.25 108.3, 112.47 94.87, 130.93 73.36 M95.42 116.86 C103.63 108.9, 112.76 97.69, 127.2 80.42 M97.78 118.14 C103.38 110.74, 109.13 102.91, 129.39 81.83" stroke="#b2f2bb" stroke-width="0.5" fill="none"></path><path d="M39.2 5.97 C47.68 1.38, 59.49 0.23, 69.72 0.63 C79.95 1.03, 91.93 3.36, 100.6 8.36 C109.26 13.36, 116.61 22.28, 121.7 30.63 C126.8 38.98, 130.32 48.68, 131.17 58.45 C132.03 68.21, 130.87 80.29, 126.85 89.22 C122.82 98.15, 115.09 106.07, 107.01 112.03 C98.93 117.98, 88.33 122.95, 78.36 124.95 C68.4 126.94, 56.9 126.9, 47.23 124.02 C37.55 121.15, 27.64 114.63, 20.32 107.7 C13 100.78, 6.42 91.79, 3.31 82.48 C0.21 73.17, -0.11 61.48, 1.7 51.84 C3.51 42.21, 7.72 32.52, 14.15 24.65 C20.58 16.78, 35.61 7.83, 40.29 4.63 C44.97 1.44, 41.64 4.33, 42.22 5.5 M60.72 -0.69 C70.5 -2.24, 83.01 0.2, 92.71 4.17 C102.4 8.14, 112.57 15.19, 118.87 23.12 C125.18 31.05, 129.03 41.92, 130.54 51.74 C132.05 61.56, 131.11 72.77, 127.94 82.03 C124.78 91.28, 118.77 100.28, 111.55 107.26 C104.32 114.25, 94.05 121.07, 84.59 123.94 C75.13 126.81, 64.46 126.23, 54.82 124.5 C45.17 122.77, 34.94 119.25, 26.71 113.56 C18.49 107.86, 9.74 99.19, 5.47 90.33 C1.2 81.47, 0.5 70.15, 1.09 60.39 C1.68 50.64, 4.12 40.55, 9 31.81 C13.88 23.06, 21.33 13.02, 30.37 7.92 C39.4 2.82, 57.74 2.3, 63.21 1.23 C68.69 0.15, 63.36 0.75, 63.22 1.48" stroke="#1e1e1e" stroke-width="1" fill="none"></path></g><g transform="translate(133.09895971186614 280.2940124261934) rotate(0 33.887977600097685 10)"><text x="33.887977600097656" y="0" font-family="Virgil, Segoe UI Emoji" font-size="16px" fill="#1e1e1e" text-anchor="middle" style="white-space: pre;" direction="ltr" dominant-baseline="text-before-edge">tailscale</text></g><g stroke-linecap="round" transform="translate(38.634765625 393.7051086425781) rotate(0 54 56.5)"><path d="M9.09 47.65 C9.09 47.65, 9.09 47.65, 9.09 47.65 M9.09 47.65 C9.09 47.65, 9.09 47.65, 9.09 47.65 M4.89 58.58 C17.92 42.94, 29.29 28.26, 50.82 5.75 M4.89 58.58 C21.82 38.61, 39.08 19.39, 50.82 5.75 M6.6 62.71 C26.53 42.22, 44.67 17.83, 55.15 6.86 M6.6 62.71 C23.64 42.04, 42.86 22.84, 55.15 6.86 M8.96 66.09 C30.1 41.97, 48.15 20.08, 60.79 6.47 M8.96 66.09 C22.59 51.58, 35.44 36.72, 60.79 6.47 M11.98 68.72 C27.16 47.65, 46.25 28.4, 63.81 9.09 M11.98 68.72 C21.97 57.04, 34.42 43.53, 63.81 9.09 M14.34 72.09 C31.04 52.46, 47.02 31.51, 66.17 12.47 M14.34 72.09 C28.57 54.8, 44.67 37.19, 66.17 12.47 M17.36 74.72 C33.55 55.21, 48.88 34.19, 69.19 15.1 M17.36 74.72 C39.19 50.44, 58.34 26.63, 69.19 15.1 M20.38 77.34 C35.42 59.48, 47.84 44.5, 72.21 17.72 M20.38 77.34 C40.01 54.04, 60.67 30.2, 72.21 17.72 M22.74 80.72 C36.87 61.32, 50.76 47.14, 74.57 21.1 M22.74 80.72 C35.32 65.81, 48.48 51.9, 74.57 21.1 M25.76 83.35 C40.36 66.19, 54.37 53.63, 77.59 23.72 M25.76 83.35 C41.43 64.45, 57.66 46.29, 77.59 23.72 M28.78 85.97 C44.95 67.96, 62.97 47.32, 79.95 27.1 M28.78 85.97 C44.35 68.3, 58.17 52.01, 79.95 27.1 M31.8 88.59 C42.59 75.56, 57.16 62.2, 82.97 29.73 M31.8 88.59 C50.57 67.19, 68.62 45.7, 82.97 29.73 M34.16 91.97 C47.06 74.07, 63.73 55.65, 85.34 33.11 M34.16 91.97 C49.29 73.7, 65.49 56.53, 85.34 33.11 M37.18 94.6 C58.51 70.68, 76.49 50.03, 88.35 35.73 M37.18 94.6 C53.25 75.52, 70.9 55.01, 88.35 35.73 M40.2 97.22 C53.36 80.28, 64.96 68.54, 90.72 39.11 M40.2 97.22 C51.24 84.95, 60.98 72.29, 90.72 39.11 M43.22 99.85 C56.47 87.32, 68.64 70.46, 93.74 41.73 M43.22 99.85 C62.91 78.41, 81.76 57.09, 93.74 41.73 M45.58 103.22 C58.44 85.9, 75.07 69.03, 96.1 45.11 M45.58 103.22 C56.44 90.86, 67.75 76.84, 96.1 45.11 M48.6 105.85 C66.64 83.29, 86.77 60.05, 99.12 47.74 M48.6 105.85 C62.8 89.59, 77.47 73.24, 99.12 47.74 M51.62 108.47 C72.55 84.76, 92.73 64.32, 101.48 51.12 M51.62 108.47 C67.07 91.12, 82.6 72.36, 101.48 51.12 M55.29 110.34 C70.72 91.71, 87.16 71.02, 104.5 53.74 M55.29 110.34 C68.75 96.19, 80.75 81.31, 104.5 53.74 M70.12 99.38 C79.32 89.7, 87.07 78.94, 106.21 57.87 M70.12 99.38 C81.86 87.89, 92.2 76.16, 106.21 57.87" stroke="#a5d8ff" stroke-width="0.5" fill="none"></path><path d="M68.75 14.25 M68.75 14.25 C76.07 18.74, 78.11 26.54, 94.25 42.75 M68.75 14.25 C77.14 22.5, 83.82 30.11, 94.25 42.75 M94.25 42.75 C109.68 58.02, 107.43 57.42, 94.25 71.25 M94.25 42.75 C107.5 56.11, 107.07 58.62, 94.25 71.25 M94.25 71.25 C87.63 79.56, 80.1 86.67, 68.75 98.75 M94.25 71.25 C88.28 77.79, 82.41 83.54, 68.75 98.75 M68.75 98.75 C53.87 114.27, 56.54 112.11, 41.25 98.75 M68.75 98.75 C55.32 111.5, 54.44 112.92, 41.25 98.75 M41.25 98.75 C31.33 90.72, 23.23 79.52, 13.75 71.25 M41.25 98.75 C34.86 92.71, 30.34 87.71, 13.75 71.25 M13.75 71.25 C-1.4 58.47, -0.81 56.75, 13.75 42.75 M13.75 71.25 C0.73 55.59, -0.93 59.13, 13.75 42.75 M13.75 42.75 C18.27 36.68, 24.2 31.54, 41.25 14.25 M13.75 42.75 C20.82 35.51, 29.73 26.69, 41.25 14.25 M41.25 14.25 C56.36 0.46, 53.57 0.75, 68.75 14.25 M41.25 14.25 C52.73 -0.11, 55.37 0.18, 68.75 14.25" stroke="#1e1e1e" stroke-width="1" fill="none"></path></g><g transform="translate(75.93077850341797 440.4551086425781) rotate(0 16.70398712158203 10)"><text x="16.70398712158203" y="0" font-family="Virgil, Segoe UI Emoji" font-size="16px" fill="#1e1e1e" text-anchor="middle" style="white-space: pre;" direction="ltr" dominant-baseline="text-before-edge">user</text></g><g stroke-linecap="round" transform="translate(173.30207236801505 408.129667080201) rotate(0 54 56.5)"><path d="M9.09 47.65 C9.09 47.65, 9.09 47.65, 9.09 47.65 M9.09 47.65 C9.09 47.65, 9.09 47.65, 9.09 47.65 M4.89 58.58 C18.44 43.39, 33.86 26.37, 50.82 5.75 M4.89 58.58 C23.23 37.29, 39.43 17.8, 50.82 5.75 M6.6 62.71 C21.73 46.13, 38.81 26.02, 55.15 6.86 M6.6 62.71 C19.13 47.62, 33.49 31.46, 55.15 6.86 M8.96 66.09 C28.71 45.05, 42.96 23.22, 60.79 6.47 M8.96 66.09 C23.82 49.34, 38.57 32.38, 60.79 6.47 M11.98 68.72 C32.18 47.03, 49.2 27.73, 63.81 9.09 M11.98 68.72 C25.29 51.83, 39.19 36.31, 63.81 9.09 M14.34 72.09 C36.04 48.87, 57.37 23.93, 66.17 12.47 M14.34 72.09 C32.33 51.25, 50.76 31.56, 66.17 12.47 M17.36 74.72 C32.11 54.15, 50.47 37.72, 69.19 15.1 M17.36 74.72 C32.02 57.56, 46.31 41.98, 69.19 15.1 M20.38 77.34 C36.17 56.49, 56.06 37.45, 72.21 17.72 M20.38 77.34 C32.22 64.59, 44.12 51.72, 72.21 17.72 M22.74 80.72 C40.66 63, 54.85 43.49, 74.57 21.1 M22.74 80.72 C38.1 64.03, 52.18 48.59, 74.57 21.1 M25.76 83.35 C41.88 63.91, 56.22 48.6, 77.59 23.72 M25.76 83.35 C41.69 63.26, 60.08 45.3, 77.59 23.72 M28.78 85.97 C41.29 71.19, 56 55.18, 79.95 27.1 M28.78 85.97 C47.65 64.9, 64.02 44.86, 79.95 27.1 M31.8 88.59 C53.21 65.81, 70.69 44.43, 82.97 29.73 M31.8 88.59 C44.54 72.74, 59.37 56.91, 82.97 29.73 M34.16 91.97 C46.86 76.47, 60.49 61.87, 85.34 33.11 M34.16 91.97 C45.44 80.74, 55.12 68.07, 85.34 33.11 M37.18 94.6 C52.16 75.29, 70.98 56.53, 88.35 35.73 M37.18 94.6 C47.8 81.8, 60.91 68.84, 88.35 35.73 M40.2 97.22 C54.31 81.73, 64.58 69.68, 90.72 39.11 M40.2 97.22 C57.29 77.46, 73.35 57.39, 90.72 39.11 M43.22 99.85 C55.55 85.21, 67.79 72.88, 93.74 41.73 M43.22 99.85 C52.61 87.58, 64.08 75.22, 93.74 41.73 M45.58 103.22 C65.22 81.88, 80.66 59.56, 96.1 45.11 M45.58 103.22 C57.87 89.55, 68.55 77.09, 96.1 45.11 M48.6 105.85 C66.16 87.1, 79.1 70.63, 99.12 47.74 M48.6 105.85 C67.66 84.63, 85.85 63.94, 99.12 47.74 M51.62 108.47 C72.49 85.34, 92.1 65.36, 101.48 51.12 M51.62 108.47 C66.42 91.6, 82.48 72.75, 101.48 51.12 M55.29 110.34 C67.55 95.55, 83.1 81.59, 104.5 53.74 M55.29 110.34 C68.1 96.06, 81.96 79.98, 104.5 53.74 M70.12 99.38 C79.8 85.66, 88.92 77.01, 106.21 57.87 M70.12 99.38 C80.09 87.73, 90.81 76.14, 106.21 57.87" stroke="#a5d8ff" stroke-width="0.5" fill="none"></path><path d="M68.75 14.25 M68.75 14.25 C77.18 23.04, 86.43 33.04, 94.25 42.75 M68.75 14.25 C74.22 22.3, 80.37 27.71, 94.25 42.75 M94.25 42.75 C106.43 56.17, 107.83 57.02, 94.25 71.25 M94.25 42.75 C109.83 57.75, 109.36 57.74, 94.25 71.25 M94.25 71.25 C84.21 83.23, 73.11 91.51, 68.75 98.75 M94.25 71.25 C84.89 80.84, 75.15 90.55, 68.75 98.75 M68.75 98.75 C55.62 114.92, 56.44 111.13, 41.25 98.75 M68.75 98.75 C56.69 111.43, 52.81 112.81, 41.25 98.75 M41.25 98.75 C32 87.62, 22.48 80.84, 13.75 71.25 M41.25 98.75 C32.8 91.87, 24.64 83.64, 13.75 71.25 M13.75 71.25 C1.08 58.12, 0.83 56.31, 13.75 42.75 M13.75 71.25 C-0.83 59.18, 1.41 55.42, 13.75 42.75 M13.75 42.75 C19.17 35.44, 23.94 29.35, 41.25 14.25 M13.75 42.75 C20.08 36.63, 25.07 30.8, 41.25 14.25 M41.25 14.25 C54.16 -1.53, 55.91 0.44, 68.75 14.25 M41.25 14.25 C54.96 0.04, 55.1 0.94, 68.75 14.25" stroke="#1e1e1e" stroke-width="1" fill="none"></path></g><g transform="translate(210.59808524643302 454.879667080201) rotate(0 16.70398712158203 10)"><text x="16.70398712158203" y="0" font-family="Virgil, Segoe UI Emoji" font-size="16px" fill="#1e1e1e" text-anchor="middle" style="white-space: pre;" direction="ltr" dominant-baseline="text-before-edge">user</text></g><g stroke-linecap="round"><g transform="translate(111.46184527247294 404.38155542596553) rotate(0 16.145537135321007 -24.54533698015939)"><path d="M-0.55 0.26 C5.05 -7.94, 27.23 -41.14, 32.84 -49.35 M1.36 -0.65 C6.83 -8.73, 26.55 -40.47, 31.7 -48.37" stroke="#1e1e1e" stroke-width="1" fill="none"></path></g><g transform="translate(111.46184527247294 404.38155542596553) rotate(0 16.145537135321007 -24.54533698015939)"><path d="M25.83 -20.37 C25.16 -26.72, 27.24 -32.55, 33.51 -49.81 M25.77 -20.74 C27.6 -30.08, 30.05 -41.51, 32.21 -49.05" stroke="#1e1e1e" stroke-width="1" fill="none"></path></g><g transform="translate(111.46184527247294 404.38155542596553) rotate(0 16.145537135321007 -24.54533698015939)"><path d="M8.91 -31.11 C12.26 -34.82, 18.38 -38.09, 33.51 -49.81 M8.85 -31.49 C16.93 -36.75, 25.6 -44.23, 32.21 -49.05" stroke="#1e1e1e" stroke-width="1" fill="none"></path></g></g><mask></mask><g stroke-linecap="round"><g transform="translate(228.97475746978523 407.32767897621375) rotate(0 -10.329102360770094 -27.761012588232575)"><path d="M1.11 0.04 C-2.49 -9.29, -17.3 -46.18, -20.84 -55.56 M0.23 -0.99 C-3.58 -10.14, -18.3 -44.99, -21.76 -54.04" stroke="#1e1e1e" stroke-width="1" fill="none"></path></g><g transform="translate(228.97475746978523 407.32767897621375) rotate(0 -10.329102360770094 -27.761012588232575)"><path d="M-1.82 -31.92 C-9.14 -38.55, -17.38 -48.97, -20.5 -52.18 M-2.71 -32.48 C-5.68 -35.72, -9.45 -42.25, -21.03 -54.72" stroke="#1e1e1e" stroke-width="1" fill="none"></path></g><g transform="translate(228.97475746978523 407.32767897621375) rotate(0 -10.329102360770094 -27.761012588232575)"><path d="M-20.63 -24.3 C-21.22 -33.84, -22.71 -46.99, -20.5 -52.18 M-21.51 -24.85 C-20.51 -29.67, -20.32 -37.8, -21.03 -54.72" stroke="#1e1e1e" stroke-width="1" fill="none"></path></g></g><mask></mask><g stroke-linecap="round"><g transform="translate(248.04723354666237 310.265397951576) rotate(0 61.92432097678318 0.7389207065892265)"><path d="M0.74 -0.82 C21.14 -0.82, 101.6 0.77, 122.02 1.17 M-0.34 1.36 C20.47 2.01, 103.71 2.08, 124.18 2.3" stroke="#1e1e1e" stroke-width="1" fill="none"></path></g><g transform="translate(248.04723354666237 310.265397951576) rotate(0 61.92432097678318 0.7389207065892265)"><path d="M94.56 10.68 C102.01 9.83, 110.11 5.71, 122.44 1.11 M96.93 11.95 C101.98 10.02, 106.94 7.67, 124.64 2.52" stroke="#1e1e1e" stroke-width="1" fill="none"></path></g><g transform="translate(248.04723354666237 310.265397951576) rotate(0 61.92432097678318 0.7389207065892265)"><path d="M94.68 -9.84 C102.29 -5.28, 110.35 -3.98, 122.44 1.11 M97.04 -8.57 C102.27 -6.32, 107.2 -4.49, 124.64 2.52" stroke="#1e1e1e" stroke-width="1" fill="none"></path></g></g><mask></mask><g stroke-linecap="round"><g transform="translate(375.89483642578136 283.6863772501141) rotate(0 -63.091140474695294 -1.0823146891425495)"><path d="M1.08 0.56 C-20.12 0.07, -105.03 -2.26, -126.57 -2.72 M0.19 -0.19 C-21.19 -0.49, -106.25 -0.48, -127.26 -1.17" stroke="#1e1e1e" stroke-width="1" fill="none"></path></g><g transform="translate(375.89483642578136 283.6863772501141) rotate(0 -63.091140474695294 -1.0823146891425495)"><path d="M-98 -10.21 C-108.87 -9.16, -118.1 -2.15, -127.1 -1.32 M-99.24 -10.09 C-107.43 -7.18, -115.91 -4.3, -127.77 -0.17" stroke="#1e1e1e" stroke-width="1" fill="none"></path></g><g transform="translate(375.89483642578136 283.6863772501141) rotate(0 -63.091140474695294 -1.0823146891425495)"><path d="M-98.28 10.31 C-109.09 4.1, -118.22 3.86, -127.1 -1.32 M-99.52 10.42 C-107.44 7.05, -115.82 3.65, -127.77 -0.17" stroke="#1e1e1e" stroke-width="1" fill="none"></path></g></g><mask></mask><g stroke-linecap="round" transform="translate(89.008544921875 39.58392333984375) rotate(0 77.374755859375 65.19783020019531)"><path d="M5.55 63.12 C5.55 63.12, 5.55 63.12, 5.55 63.12 M5.55 63.12 C5.55 63.12, 5.55 63.12, 5.55 63.12 M6.6 68.01 C8.27 65.88, 10.51 61.06, 15.78 57.44 M6.6 68.01 C10.43 63.69, 13.95 60.12, 15.78 57.44 M8.96 71.39 C15.65 64.22, 21.55 58.29, 35.86 40.45 M8.96 71.39 C17 61.69, 27.06 51.11, 35.86 40.45 M11.32 74.77 C28.09 57.58, 42.11 35.54, 65.78 12.13 M11.32 74.77 C22.44 61.42, 36.35 47.22, 65.78 12.13 M14.34 77.39 C34.8 53.42, 59.96 26.98, 76.01 6.45 M14.34 77.39 C30.35 59.58, 46.64 41.65, 76.01 6.45 M17.36 80.02 C43.18 51.62, 63.77 27.3, 82.31 5.3 M17.36 80.02 C29.8 65.43, 43.9 49.58, 82.31 5.3 M20.38 82.64 C42.76 58.56, 63.4 34.83, 85.33 7.92 M20.38 82.64 C34.31 65.91, 50.31 47.58, 85.33 7.92 M23.4 85.26 C39.76 64.99, 58.08 46.99, 89 9.79 M23.4 85.26 C40.97 65.71, 56.3 45.68, 89 9.79 M26.42 87.89 C47.45 64.2, 65.03 44.44, 92.02 12.42 M26.42 87.89 C45.79 67.03, 65.67 43.86, 92.02 12.42 M29.44 90.51 C42.07 74.02, 57.11 58.65, 95.04 15.04 M29.44 90.51 C47.85 69.24, 66.95 48.6, 95.04 15.04 M32.45 93.14 C53.52 67.47, 74.96 41.12, 98.72 16.91 M32.45 93.14 C46.9 77.28, 61.92 60.59, 98.72 16.91 M35.47 95.76 C54.78 74.71, 70.8 54.65, 101.73 19.54 M35.47 95.76 C60.51 67.52, 85.96 37.79, 101.73 19.54 M38.49 98.39 C51.73 81.35, 67.69 61.84, 104.1 22.91 M38.49 98.39 C52.69 82.09, 67.65 64.84, 104.1 22.91 M42.17 100.26 C55.61 84.52, 68.79 68.21, 107.12 25.54 M42.17 100.26 C56.86 83.08, 70.99 66.33, 107.12 25.54 M45.19 102.88 C62.26 84.73, 75.11 65.27, 110.14 28.16 M45.19 102.88 C62.04 83.52, 77.9 63.72, 110.14 28.16 M48.2 105.5 C69.13 77.27, 92.02 52.21, 113.15 30.79 M48.2 105.5 C68.93 81.87, 89.32 59.1, 113.15 30.79 M51.22 108.13 C65.92 88.6, 83.94 71.87, 116.17 33.41 M51.22 108.13 C70.95 85.61, 89.89 63.35, 116.17 33.41 M54.24 110.75 C72.84 87.37, 94.96 61.4, 119.19 36.04 M54.24 110.75 C70.69 90.79, 89.62 72.73, 119.19 36.04 M57.26 113.38 C74.46 92.87, 93.49 67.34, 122.21 38.66 M57.26 113.38 C76.33 91.93, 94.67 68.68, 122.21 38.66 M60.94 115.25 C75.06 100.93, 85.92 83.2, 125.23 41.28 M60.94 115.25 C83.54 88.71, 106.43 63.59, 125.23 41.28 M63.95 117.87 C79.76 98.29, 98.99 76.24, 128.25 43.91 M63.95 117.87 C88.66 88.95, 112.94 59.65, 128.25 43.91 M66.97 120.49 C88.16 96.92, 107.37 77.59, 131.27 46.53 M66.97 120.49 C92.82 91.27, 118.09 60.89, 131.27 46.53 M69.99 123.12 C89.4 103.5, 105.7 80.54, 134.29 49.16 M69.99 123.12 C90.53 99.71, 111.49 76.66, 134.29 49.16 M73.01 125.74 C92.95 104.38, 107.88 82.78, 137.3 51.78 M73.01 125.74 C87.08 109.4, 100.84 92.64, 137.3 51.78 M76.69 127.61 C91.62 111.19, 106.74 93.02, 140.32 54.41 M76.69 127.61 C99.7 102.49, 123.28 74.83, 140.32 54.41 M82.99 126.46 C100.84 104.61, 120.15 83.87, 143.34 57.03 M82.99 126.46 C97.19 110.21, 112.25 94.43, 143.34 57.03 M93.22 120.79 C103.47 106.67, 115.95 91.3, 146.36 59.65 M93.22 120.79 C106.78 104.93, 119.09 89.85, 146.36 59.65 M111.98 105.3 C122.07 96.32, 129.27 83.93, 148.72 63.03 M111.98 105.3 C120.41 96.48, 130.16 86.02, 148.72 63.03 M136 83.77 C139.51 80.52, 143.29 77.75, 151.09 66.41 M136 83.77 C140.38 79.68, 144.17 74.72, 151.09 66.41" stroke="#ffc9c9" stroke-width="0.5" fill="none"></path><path d="M97.5 16.5 M97.5 16.5 C107.28 24.63, 119.72 36.39, 135.25 49.5 M97.5 16.5 C111.93 30.33, 127.07 43.07, 135.25 49.5 M135.25 49.5 C155.48 67.35, 156.1 65.97, 135.25 82.5 M135.25 49.5 C156.97 65.98, 153.35 65.56, 135.25 82.5 M135.25 82.5 C126.55 90.97, 118.39 99.75, 97.5 113.9 M135.25 82.5 C125.28 91.22, 113.34 99.55, 97.5 113.9 M97.5 113.9 C77.46 130.55, 78.5 131.29, 58.5 113.9 M97.5 113.9 C76.4 132.39, 79.2 128.97, 58.5 113.9 M58.5 113.9 C45.03 103.01, 34.99 95.06, 19.5 82.5 M58.5 113.9 C49.34 106.22, 39.36 99.53, 19.5 82.5 M19.5 82.5 C-0.17 66.64, -1.12 67.49, 19.5 49.5 M19.5 82.5 C2.05 65.76, -2.08 68.22, 19.5 49.5 M19.5 49.5 C34.28 35.57, 48.33 26.04, 58.5 16.5 M19.5 49.5 C27.94 43.38, 35.42 36.4, 58.5 16.5 M58.5 16.5 C77.23 -1.07, 78.45 -1.88, 97.5 16.5 M58.5 16.5 C78.49 0.23, 76.55 -1.85, 97.5 16.5" stroke="#1e1e1e" stroke-width="1" fill="none"></path></g><g transform="translate(136.59593963623047 84.6828384399414) rotate(0 29.59998321533203 20)"><text x="29.59998321533203" y="0" font-family="Virgil, Segoe UI Emoji" font-size="16px" fill="#1e1e1e" text-anchor="middle" style="white-space: pre;" direction="ltr" dominant-baseline="text-before-edge">GitHub </text><text x="29.59998321533203" y="20" font-family="Virgil, Segoe UI Emoji" font-size="16px" fill="#1e1e1e" text-anchor="middle" style="white-space: pre;" direction="ltr" dominant-baseline="text-before-edge">Actions</text></g><g stroke-linecap="round"><g transform="translate(165.98309326171875 174.07052612304688) rotate(0 0.119225219418297 22.7562185962405)"><path d="M0.96 0.49 C0.8 7.87, 0.23 37.09, -0.07 44.61 M0 -0.3 C-0.35 7.2, -0.44 38.52, -0.72 45.82" stroke="#1e1e1e" stroke-width="1" fill="none"></path></g><g transform="translate(165.98309326171875 174.07052612304688) rotate(0 0.119225219418297 22.7562185962405)"><path d="M-7.25 25.35 C-6.29 32.05, -1.85 38.6, 0.77 46.48 M-8.99 24.31 C-6.23 29.91, -3.14 35.84, -0.85 46.4" stroke="#1e1e1e" stroke-width="1" fill="none"></path></g><g transform="translate(165.98309326171875 174.07052612304688) rotate(0 0.119225219418297 22.7562185962405)"><path d="M8.21 25.64 C3.37 32.35, 2 38.79, 0.77 46.48 M6.48 24.59 C4.88 30.13, 3.6 35.98, -0.85 46.4" stroke="#1e1e1e" stroke-width="1" fill="none"></path></g></g><mask></mask><g stroke-linecap="round" transform="translate(528.0582275390625 118.35269165039062) rotate(0 164 60)"><path d="M30 0 M30 0 C135.74 0.15, 238.84 0.62, 298 0 M30 0 C88.73 -0.54, 149.41 -0.51, 298 0 M298 0 C317.66 -0.27, 329.07 9.1, 328 30 M298 0 C317.31 0.96, 327.59 11.45, 328 30 M328 30 C326.05 43.76, 328.73 55.49, 328 90 M328 30 C327.19 53.06, 327.64 75.29, 328 90 M328 90 C329.45 108.59, 317.14 119.19, 298 120 M328 90 C326.55 109.94, 316.9 118.43, 298 120 M298 120 C219.45 116.95, 140.93 118.9, 30 120 M298 120 C218.42 119.4, 137.79 120.43, 30 120 M30 120 C10.63 121.58, 1.38 111.92, 0 90 M30 120 C9.55 121.55, 0.53 108.34, 0 90 M0 90 C1.01 71.75, 1.78 55.01, 0 30 M0 90 C-0.26 77.15, -0.82 63.47, 0 30 M0 30 C1.61 10.41, 10.37 0.01, 30 0 M0 30 C0.36 11.49, 11.6 -0.73, 30 0" stroke="#1e1e1e" stroke-width="1" fill="none"></path></g><g transform="translate(650.0102615356445 158.35269165039062) rotate(0 42.04796600341797 20)"><text x="42.04796600341797" y="0" font-family="Virgil, Segoe UI Emoji" font-size="16px" fill="#1e1e1e" text-anchor="middle" style="white-space: pre;" direction="ltr" dominant-baseline="text-before-edge">Lab Space</text><text x="42.04796600341797" y="20" font-family="Virgil, Segoe UI Emoji" font-size="16px" fill="#1e1e1e" text-anchor="middle" style="white-space: pre;" direction="ltr" dominant-baseline="text-before-edge">10.0.0.0/16</text></g><g stroke-linecap="round" transform="translate(378.6279296875 254.08432006835938) rotate(0 54.5 46.5)"><path d="M20.06 10.81 C20.06 10.81, 20.06 10.81, 20.06 10.81 M20.06 10.81 C20.06 10.81, 20.06 10.81, 20.06 10.81 M7.54 30.95 C10.15 25.67, 19.04 20.49, 26.17 9.45 M6.66 31.58 C12.17 25.19, 16.12 20.08, 27.14 8.02 M4.74 36.92 C14.41 31.71, 19.76 24.25, 33.62 6.35 M6.53 38.99 C16.48 27.75, 24.37 16.26, 34.92 5.37 M3.78 47.89 C14.86 35.34, 22.52 26.16, 44.37 2.12 M4.95 47.29 C15.26 35.88, 23.78 23.93, 44.05 2.4 M3.99 53.01 C16.17 40.43, 31.08 23.89, 47.27 0.84 M3.15 53.93 C13.59 43.2, 22.78 32.01, 48.74 2.41 M5.07 58.44 C22.91 38.48, 44.01 16.69, 53.62 4.79 M5.74 57.69 C17.19 45.13, 29.25 30.87, 54.42 3.48 M8.05 63.62 C25.78 40.4, 44.63 20.85, 60.19 5.05 M7.41 61.29 C18.37 49.2, 30.25 35.44, 58.49 3.36 M8 67.52 C21.61 50.92, 31.05 37.19, 61.96 4.21 M9.47 65.78 C28.56 43.71, 48.14 20.81, 62.87 4.41 M12.84 69.59 C34.3 43.01, 56.19 19.58, 69.02 3.63 M12.31 69.82 C24.29 53.64, 38.1 37.79, 68.57 5.1 M11.63 74.32 C25.04 56.66, 38.17 41.48, 74.62 6.93 M13.49 74.46 C25.55 57.9, 38.62 43.62, 73.58 5.76 M17.26 75.71 C36.53 51.11, 60.04 25.51, 76.17 7.76 M16.18 77.84 C34.69 53.2, 55.32 30.41, 77.54 6.61 M20.05 80.27 C36.25 56.91, 56.23 37.54, 80.59 7.76 M18.51 80.48 C37.55 57.65, 54.99 37.44, 80.87 7.98 M21.89 80.79 C44.24 58.01, 66.71 31.32, 85.2 7.87 M21.46 83.27 C43.87 57.9, 65.6 32.42, 85.44 9.8 M23.75 84.55 C47.44 57.41, 72.13 31.12, 89.25 13.01 M26.06 83.97 C41.77 64.01, 56.98 44.97, 87.81 12.63 M27.83 87.62 C49.1 63.28, 70.26 39.75, 90.68 14.88 M27.42 87.7 C50.35 62.17, 69.74 38.49, 91.75 14.65 M31.05 88.83 C53.35 62.63, 77.19 36.61, 95.7 14.96 M31.82 89.2 C52.6 64.44, 76.01 39.2, 95.59 16.91 M36.55 90.51 C61.45 61.59, 83.93 36.1, 98.93 19.97 M34.11 91.83 C56.36 68.64, 75.81 44.01, 98.06 19.06 M39.22 93.03 C55.33 73.8, 71.1 55.68, 102.21 23.42 M40.85 92.29 C62.91 65.99, 85.17 39.93, 100.92 23.14 M45.21 91.5 C65.49 69.54, 83.81 48.84, 102.77 24.57 M45.66 91.68 C65.64 69.33, 85.48 46.25, 102.82 24.78 M48.72 90.57 C69.96 71.18, 88.49 49.15, 106.08 28.7 M49.73 92.48 C68.93 71.55, 87.53 49.98, 103.93 29.76 M56.18 92.4 C65.85 76.77, 77.28 65.78, 105.34 34.86 M55.75 92.75 C74.28 68.72, 95.9 45.37, 105.18 33.95 M59.75 91.15 C71.12 79.16, 86.86 63.44, 108.99 36.59 M59.17 92.93 C72.49 76.7, 87.84 60.73, 107.51 36.34 M62.18 92.27 C82.8 74.76, 102.27 52.63, 108.87 41.98 M64.81 93.34 C76.34 79.32, 89.29 66.09, 109.77 41.3 M71.53 92.93 C85.32 74.32, 102.08 57.05, 107.8 50.4 M71.3 90.88 C85.68 76.85, 98.34 61.38, 110.09 47.58 M78.91 90.11 C89.4 80.66, 97.97 70.86, 108.19 58.19 M78.61 89.36 C89.68 76.39, 99.61 66.58, 108.18 56.27" stroke="#a5d8ff" stroke-width="0.5" fill="none"></path><path d="M74.75 3.9 C83.31 5.96, 92.35 11.86, 98.05 17.81 C103.74 23.76, 107.83 31.89, 108.91 39.6 C109.99 47.32, 108.14 56.82, 104.52 64.1 C100.89 71.39, 94.2 78.69, 87.15 83.33 C80.11 87.96, 71.21 90.76, 62.24 91.91 C53.26 93.07, 41.61 93.08, 33.33 90.26 C25.04 87.43, 17.96 81.27, 12.53 74.95 C7.1 68.63, 2.11 59.95, 0.73 52.31 C-0.65 44.67, 0.99 36.04, 4.23 29.1 C7.47 22.16, 13.04 15.35, 20.19 10.67 C27.34 5.99, 37.55 2.07, 47.13 1.02 C56.71 -0.03, 71.93 3.36, 77.69 4.38 C83.46 5.39, 82.04 6.53, 81.71 7.11 M59.05 -0.07 C67.9 0.24, 79.59 4.96, 87.21 9.37 C94.83 13.77, 101.26 19.45, 104.76 26.36 C108.27 33.27, 109 42.79, 108.24 50.82 C107.47 58.84, 105.37 68.12, 100.17 74.5 C94.98 80.87, 85.55 85.8, 77.08 89.08 C68.61 92.36, 58.14 95.05, 49.36 94.17 C40.57 93.28, 31.91 88.64, 24.36 83.76 C16.8 78.89, 7.98 71.79, 4.01 64.93 C0.05 58.06, -0.58 50.31, 0.58 42.56 C1.73 34.82, 5.87 24.72, 10.92 18.45 C15.97 12.17, 22.94 8.05, 30.87 4.9 C38.8 1.75, 53.68 0.18, 58.49 -0.44 C63.31 -1.06, 59.85 0.49, 59.76 1.18" stroke="#1e1e1e" stroke-width="1" fill="none"></path></g><g transform="translate(414.5306201836339 290.70385474318493) rotate(0 18.55998992919922 10)"><text x="18.55998992919922" y="0" font-family="Virgil, Segoe UI Emoji" font-size="16px" fill="#1e1e1e" text-anchor="middle" style="white-space: pre;" direction="ltr" dominant-baseline="text-before-edge">VyOS</text></g><g stroke-linecap="round" transform="translate(530.1927585246854 367.386962890625) rotate(0 162 59.5)"><path d="M29.75 0 M29.75 0 C114.55 -1.26, 200.18 -0.22, 294.25 0 M29.75 0 C93.81 -0.41, 157.75 -0.81, 294.25 0 M294.25 0 C313.53 0.49, 324.42 9.24, 324 29.75 M294.25 0 C314.16 -1.55, 324.08 11.44, 324 29.75 M324 29.75 C322.61 51.86, 325.86 70.51, 324 89.25 M324 29.75 C323.45 44.31, 323.08 60.82, 324 89.25 M324 89.25 C325.9 108.59, 314.78 119.99, 294.25 119 M324 89.25 C322.17 109.72, 313.68 117.74, 294.25 119 M294.25 119 C237.52 119.02, 180.03 118.5, 29.75 119 M294.25 119 C230.54 120.79, 166.16 120.3, 29.75 119 M29.75 119 C11.22 119.21, 1.89 111.05, 0 89.25 M29.75 119 C9.1 116.73, 0.61 108.4, 0 89.25 M0 89.25 C-0.79 69.35, 1.98 49.08, 0 29.75 M0 89.25 C-0.34 71.96, 0.94 53.9, 0 29.75 M0 29.75 C1.16 8.53, 7.98 -1.51, 29.75 0 M0 29.75 C2.09 11.06, 11.49 -0.05, 29.75 0" stroke="#1e1e1e" stroke-width="1" fill="none"></path></g><g transform="translate(629.264818156033 406.886962890625) rotate(0 62.927940368652344 20)"><text x="62.927940368652344" y="0" font-family="Virgil, Segoe UI Emoji" font-size="16px" fill="#1e1e1e" text-anchor="middle" style="white-space: pre;" direction="ltr" dominant-baseline="text-before-edge">Dev Space</text><text x="62.927940368652344" y="20" font-family="Virgil, Segoe UI Emoji" font-size="16px" fill="#1e1e1e" text-anchor="middle" style="white-space: pre;" direction="ltr" dominant-baseline="text-before-edge">192.168.55.0/24</text></g><g stroke-linecap="round"><g transform="translate(475.3563232421875 263.0455627441406) rotate(0 26.181015110621217 -14.322069129347796)"><path d="M0.61 -0.44 C9.14 -5.21, 42.18 -23.55, 50.55 -28.2 M-0.52 -1.72 C8.44 -6.4, 44.49 -22.83, 52.89 -27.13" stroke="#1e1e1e" stroke-width="1" fill="none"></path></g><g transform="translate(475.3563232421875 263.0455627441406) rotate(0 26.181015110621217 -14.322069129347796)"><path d="M31.85 -7.56 C36.11 -12.35, 40.98 -17.08, 51.3 -27.88 M32.98 -5.63 C38.27 -12.73, 43.05 -17.24, 51.93 -26.61" stroke="#1e1e1e" stroke-width="1" fill="none"></path></g><g transform="translate(475.3563232421875 263.0455627441406) rotate(0 26.181015110621217 -14.322069129347796)"><path d="M23.25 -25.47 C29.73 -25.82, 36.75 -26.05, 51.3 -27.88 M24.38 -23.54 C32.08 -26.06, 39.1 -25.91, 51.93 -26.61" stroke="#1e1e1e" stroke-width="1" fill="none"></path></g></g><mask></mask><g stroke-linecap="round"><g transform="translate(480.2713519090511 337.54084631046) rotate(0 23.528756214781367 17.77974255436544)"><path d="M-0.95 0.81 C6.96 6.65, 39.69 29.54, 48.01 35.37 M0.75 0.19 C8.46 5.61, 39.08 27.76, 47.07 33.37" stroke="#1e1e1e" stroke-width="1" fill="none"></path></g><g transform="translate(480.2713519090511 337.54084631046) rotate(0 23.528756214781367 17.77974255436544)"><path d="M19.76 25.44 C28.67 29.97, 39.29 29.57, 48.41 35.3 M18.91 25.11 C27.52 27.32, 37.02 29.72, 47.59 32.93" stroke="#1e1e1e" stroke-width="1" fill="none"></path></g><g transform="translate(480.2713519090511 337.54084631046) rotate(0 23.528756214781367 17.77974255436544)"><path d="M31.58 8.88 C36.48 19.02, 43.02 24.31, 48.41 35.3 M30.73 8.55 C35.49 16.09, 41.17 23.85, 47.59 32.93" stroke="#1e1e1e" stroke-width="1" fill="none"></path></g></g><mask></mask><g stroke-linecap="round"><g transform="translate(497.3749170558274 307.965398404231) rotate(0 30.077606694377437 0.4162800899497938)"><path d="M-0.76 -0.69 C9.47 -0.85, 50.69 -0.34, 60.92 -0.25 M1.04 1.56 C11.12 1.47, 49.4 0.97, 59.75 0.83" stroke="#1e1e1e" stroke-width="1" fill="none"></path></g><g transform="translate(497.3749170558274 307.965398404231) rotate(0 30.077606694377437 0.4162800899497938)"><path d="M30.54 10.76 C37.47 7.69, 44.9 6.8, 61.74 -0.88 M31.3 10.73 C38.32 9.42, 44.88 7.4, 60.29 0.57" stroke="#1e1e1e" stroke-width="1" fill="none"></path></g><g transform="translate(497.3749170558274 307.965398404231) rotate(0 30.077606694377437 0.4162800899497938)"><path d="M30.27 -9.76 C37.39 -7.5, 44.89 -3.07, 61.74 -0.88 M31.04 -9.79 C38.07 -6.18, 44.69 -3.28, 60.29 0.57" stroke="#1e1e1e" stroke-width="1" fill="none"></path></g></g><mask></mask><g transform="translate(403.3962423789375 322.6632105420126) rotate(0 32.13740539550781 6.692473488576525)"><text x="32.13740539550781" y="0" font-family="Virgil, Segoe UI Emoji" font-size="10.707957581722459px" fill="#1e1e1e" text-anchor="middle" style="white-space: pre;" direction="ltr" dominant-baseline="text-before-edge">192.168.55.3</text></g><g transform="translate(562.475217487613 323.49801911340967) rotate(0 41.058372497558594 8.503967347201467)"><text x="41.058372497558594" y="0" font-family="Virgil, Segoe UI Emoji" font-size="13.606347755522352px" fill="#1e1e1e" text-anchor="middle" style="white-space: pre;" direction="ltr" dominant-baseline="text-before-edge">192.168.55.2</text></g><g stroke-linecap="round" transform="translate(401.9877675709455 265.8169464332172) rotate(0 31.240414353394954 10.000000000000028)"><path d="M1.33 1.16 C1.33 1.16, 1.33 1.16, 1.33 1.16 M1.33 1.16 C1.33 1.16, 1.33 1.16, 1.33 1.16 M1.73 6.8 C3.69 5.3, 4.71 3.46, 6.32 1.52 M1.73 6.8 C2.82 5.31, 3.65 4.14, 6.32 1.52 M2.12 12.44 C5.9 10.83, 6.03 6.28, 11.96 1.12 M2.12 12.44 C5.57 7.72, 9.01 3.75, 11.96 1.12 M1.86 18.84 C4.85 12.86, 11.16 8.04, 16.95 1.48 M1.86 18.84 C6.76 12.77, 13.06 8.12, 16.95 1.48 M4.88 21.47 C6.75 15.71, 10.62 12.47, 22.59 1.09 M4.88 21.47 C9.29 15.68, 13.59 11.23, 22.59 1.09 M9.86 21.83 C13.58 17.89, 17.54 13.1, 27.58 1.45 M9.86 21.83 C15.25 15, 21.85 7.71, 27.58 1.45 M15.51 21.43 C19.65 16.29, 27.9 9.73, 32.57 1.81 M15.51 21.43 C18.54 18.02, 22.98 12.4, 32.57 1.81 M20.49 21.79 C22.65 18.49, 29.38 12.51, 38.21 1.41 M20.49 21.79 C25.3 15.93, 31.9 10.37, 38.21 1.41 M26.14 21.4 C30.74 17.17, 34.54 13.4, 43.2 1.77 M26.14 21.4 C29.78 17.73, 33.83 12.67, 43.2 1.77 M31.12 21.76 C35.08 18.18, 38.51 10.71, 48.84 1.38 M31.12 21.76 C35.66 15.93, 41.53 9.57, 48.84 1.38 M36.77 21.36 C41.53 16.36, 43.44 11.45, 53.83 1.74 M36.77 21.36 C39.95 15.59, 45.73 11.25, 53.83 1.74 M41.75 21.72 C50.37 15.08, 56.93 7.12, 60.12 0.59 M41.75 21.72 C45.72 16.7, 49.18 13.32, 60.12 0.59 M46.74 22.08 C52.98 16.94, 55.66 8.69, 63.14 3.21 M46.74 22.08 C51.97 16.98, 56.05 12.25, 63.14 3.21 M52.38 21.69 C55.09 18.05, 57.79 15.23, 62.88 9.61 M52.38 21.69 C55.26 18.58, 58.04 15.27, 62.88 9.61 M58.68 20.54 C59.79 19.61, 60.86 18.3, 62.62 16.01 M58.68 20.54 C59.98 18.97, 61.7 17.1, 62.62 16.01" stroke="#ffc9c9" stroke-width="0.5" fill="none"></path><path d="M5 0 M5 0 C21.12 1.46, 39.56 1.18, 57.48 0 M5 0 C20.78 -0.39, 38.04 1.42, 57.48 0 M57.48 0 C59.97 -0.44, 61.9 1.75, 62.48 5 M57.48 0 C62.64 -1.73, 62.57 2.71, 62.48 5 M62.48 5 C62.58 8.29, 62.79 11.39, 62.48 15 M62.48 5 C62.61 8.53, 62.26 12.45, 62.48 15 M62.48 15 C61.49 16.67, 62.65 19.64, 57.48 20 M62.48 15 C61.39 18.54, 60.85 19.88, 57.48 20 M57.48 20 C41.38 19.29, 28.46 18.77, 5 20 M57.48 20 C47.13 20.51, 34.32 19.47, 5 20 M5 20 C3.39 20.51, 1.83 19.81, 0 15 M5 20 C-0.08 21.88, -0.63 17.49, 0 15 M0 15 C0.5 11.68, -0.02 8.51, 0 5 M0 15 C-0.16 12.08, -0.5 10.23, 0 5 M0 5 C1.05 1.51, 1.4 -0.43, 5 0 M0 5 C1.4 0, 0.79 2.18, 5 0" stroke="#1e1e1e" stroke-width="1" fill="none"></path></g><g transform="translate(412.7618351836178 270.8187722706656) rotate(0 20.466346740722656 4.998174162551436)"><text x="20.466346740722656" y="0" font-family="Virgil, Segoe UI Emoji" font-size="7.99707866008227px" fill="#1e1e1e" text-anchor="middle" style="white-space: pre;" direction="ltr" dominant-baseline="text-before-edge">Bind9 DNS</text></g><g stroke-linecap="round" transform="translate(668.1044367828863 259.0333831033044) rotate(0 32.058262379268626 20.523583340875092)"><path d="M0.6 5.82 C0.6 5.82, 0.6 5.82, 0.6 5.82 M0.6 5.82 C0.6 5.82, 0.6 5.82, 0.6 5.82 M0.34 12.22 C2.97 9.25, 8.72 4.39, 10.83 0.14 M0.34 12.22 C4.24 7.57, 7.04 3.92, 10.83 0.14 M0.08 18.62 C3.19 16.11, 7.25 11.53, 15.82 0.5 M0.08 18.62 C4 13.01, 7.62 8.13, 15.82 0.5 M0.47 24.26 C5.75 17.82, 15.16 6.02, 21.46 0.11 M0.47 24.26 C5.08 19.25, 10.81 13.19, 21.46 0.11 M0.21 30.66 C4.88 25.63, 11.82 15.85, 26.45 0.47 M0.21 30.66 C8.12 21.14, 18.65 11.81, 26.45 0.47 M1.26 35.55 C8.64 27.3, 19.61 17.4, 32.09 0.07 M1.26 35.55 C13.86 22.27, 24.7 7.17, 32.09 0.07 M3.62 38.92 C14.2 24.89, 27.55 9.48, 37.08 0.43 M3.62 38.92 C16.37 25.1, 27.62 9.48, 37.08 0.43 M7.3 40.79 C18.34 28.19, 28.4 15.17, 42.72 0.04 M7.3 40.79 C17.7 29.38, 25.19 20.59, 42.72 0.04 M11.63 41.91 C19.92 29.73, 32.18 19.45, 47.71 0.4 M11.63 41.91 C23.15 28.61, 35.11 14.13, 47.71 0.4 M16.62 42.27 C26.23 28.76, 37.92 17.48, 53.35 0.01 M16.62 42.27 C26.27 31.75, 37.25 18.22, 53.35 0.01 M22.26 41.87 C33.1 28.78, 40.65 18.57, 56.37 2.63 M22.26 41.87 C35.43 26.38, 47.96 12.98, 56.37 2.63 M27.25 42.23 C37.75 28.91, 51.37 15.51, 61.36 2.99 M27.25 42.23 C37 31.66, 45.99 22.55, 61.36 2.99 M32.89 41.84 C41.19 35.07, 45.71 25.45, 63.07 7.12 M32.89 41.84 C43.87 29.11, 56.26 16.57, 63.07 7.12 M37.88 42.2 C47.72 31.52, 55.69 23.05, 64.77 11.26 M37.88 42.2 C44.59 35.4, 50.11 26.75, 64.77 11.26 M43.52 41.81 C49.58 34.37, 57.46 26.3, 65.17 16.9 M43.52 41.81 C48.94 34.82, 55.09 27.74, 65.17 16.9 M48.51 42.17 C52.88 39.91, 53.78 34.81, 64.91 23.3 M48.51 42.17 C51.99 37.26, 54.91 33.66, 64.91 23.3 M54.15 41.77 C57.13 36.18, 60.64 31.65, 65.3 28.94 M54.15 41.77 C57.5 37.74, 62.3 31.69, 65.3 28.94" stroke="#ffc9c9" stroke-width="0.5" fill="none"></path><path d="M10.26 0 M10.26 0 C19.93 -2.01, 34.2 -2.01, 53.85 0 M10.26 0 C24.46 -0.35, 40.4 -1.15, 53.85 0 M53.85 0 C59.15 -1.35, 62.18 2, 64.12 10.26 M53.85 0 C60.2 2.24, 62.02 3.83, 64.12 10.26 M64.12 10.26 C65.32 15.51, 64.74 21.97, 64.12 30.79 M64.12 10.26 C63.65 14.92, 63.42 18.16, 64.12 30.79 M64.12 30.79 C64.88 39.59, 59.32 40.88, 53.85 41.05 M64.12 30.79 C63.88 35.69, 61.76 41.44, 53.85 41.05 M53.85 41.05 C40.71 40.06, 28.46 43.13, 10.26 41.05 M53.85 41.05 C38.94 41.68, 24.15 41.84, 10.26 41.05 M10.26 41.05 C5.15 40.54, 0.2 36.42, 0 30.79 M10.26 41.05 C4.06 39.9, 0.4 36.32, 0 30.79 M0 30.79 C-0.03 26.11, -0.36 18.44, 0 10.26 M0 30.79 C-0.78 23.7, 0.57 16.77, 0 10.26 M0 10.26 C-0.35 2.63, 1.57 1.15, 10.26 0 M0 10.26 C0.86 4.45, 5.04 1.74, 10.26 0" stroke="#1e1e1e" stroke-width="1" fill="none"></path></g><g transform="translate(675.8712028852995 264.0951022274546) rotate(0 24.29149627685547 15.461864216724905)"><text x="24.29149627685547" y="0" font-family="Virgil, Segoe UI Emoji" font-size="8.246327582253294px" fill="#1e1e1e" text-anchor="middle" style="white-space: pre;" direction="ltr" dominant-baseline="text-before-edge">Postgres </text><text x="24.29149627685547" y="10.307909477816617" font-family="Virgil, Segoe UI Emoji" font-size="8.246327582253294px" fill="#1e1e1e" text-anchor="middle" style="white-space: pre;" direction="ltr" dominant-baseline="text-before-edge">(Terraform </text><text x="24.29149627685547" y="20.615818955633234" font-family="Virgil, Segoe UI Emoji" font-size="8.246327582253294px" fill="#1e1e1e" text-anchor="middle" style="white-space: pre;" direction="ltr" dominant-baseline="text-before-edge">State)</text></g><g stroke-linecap="round" transform="translate(669.4636947276869 307.32138945825636) rotate(0 32.05826237926868 20.52358334087512)"><path d="M0.6 5.82 C0.6 5.82, 0.6 5.82, 0.6 5.82 M0.6 5.82 C0.6 5.82, 0.6 5.82, 0.6 5.82 M0.34 12.22 C3.77 7.71, 7.34 4.86, 10.83 0.14 M0.34 12.22 C4.59 8.17, 8.22 4.79, 10.83 0.14 M0.08 18.62 C2.83 14.78, 9.38 7.97, 15.82 0.5 M0.08 18.62 C4.29 14.38, 6.94 10.14, 15.82 0.5 M0.47 24.26 C5.92 18.77, 10.82 10.8, 21.46 0.11 M0.47 24.26 C7.56 16.22, 15.7 8.08, 21.46 0.11 M0.21 30.66 C10.09 19.94, 15.74 10.77, 26.45 0.47 M0.21 30.66 C5.59 24.67, 10.68 18.11, 26.45 0.47 M1.26 35.55 C12.15 20.87, 24.93 7.01, 32.09 0.07 M1.26 35.55 C8.23 27.5, 16.71 19.51, 32.09 0.07 M3.62 38.92 C12.55 28.16, 21.61 20.73, 37.08 0.43 M3.62 38.92 C14.55 24.74, 27.54 11.68, 37.08 0.43 M7.3 40.79 C16.04 30.14, 23.45 22.01, 42.72 0.04 M7.3 40.79 C18.99 27.19, 30.53 15.41, 42.72 0.04 M11.63 41.91 C27.58 26.3, 41.02 8.62, 47.71 0.4 M11.63 41.91 C19.61 32.58, 25.71 24.18, 47.71 0.4 M16.62 42.27 C27.81 28.84, 41.24 16.75, 53.35 0.01 M16.62 42.27 C27.8 31.12, 37.6 19.47, 53.35 0.01 M22.26 41.87 C29.42 32.55, 39.38 21.88, 56.37 2.63 M22.26 41.87 C35.24 27.08, 48.76 11.42, 56.37 2.63 M27.25 42.23 C40.53 26.63, 53.48 10.15, 61.36 2.99 M27.25 42.23 C39.35 27.3, 51.39 12.52, 61.36 2.99 M32.89 41.84 C40.21 34.04, 43.58 26.83, 63.07 7.12 M32.89 41.84 C39.63 33.09, 47.28 26.01, 63.07 7.12 M37.88 42.2 C44.36 34.21, 49.94 28.43, 64.77 11.26 M37.88 42.2 C45.16 31.95, 52.96 24.06, 64.77 11.26 M43.52 41.81 C48.74 35.29, 51.39 33.34, 65.17 16.9 M43.52 41.81 C50.14 32.06, 59.22 25.24, 65.17 16.9 M48.51 42.17 C54.67 37.25, 58.3 28.37, 64.91 23.3 M48.51 42.17 C52.55 36.77, 58.26 30.75, 64.91 23.3 M54.15 41.77 C55.63 38.29, 61.1 35.34, 65.3 28.94 M54.15 41.77 C56.54 37.94, 58.91 35.14, 65.3 28.94" stroke="#ffc9c9" stroke-width="0.5" fill="none"></path><path d="M10.26 0 M10.26 0 C24.02 2.05, 40.6 -1.78, 53.85 0 M10.26 0 C26.96 0.24, 43.89 -0.04, 53.85 0 M53.85 0 C60.48 -1.13, 63.09 2.8, 64.12 10.26 M53.85 0 C60.02 -0.97, 65.19 2.48, 64.12 10.26 M64.12 10.26 C64.39 19.45, 65.3 25.32, 64.12 30.79 M64.12 10.26 C63.34 15.22, 65.26 19.62, 64.12 30.79 M64.12 30.79 C65.22 35.78, 62.51 39.42, 53.85 41.05 M64.12 30.79 C64.21 35.53, 62.03 43.17, 53.85 41.05 M53.85 41.05 C44.73 39.34, 32.12 40.02, 10.26 41.05 M53.85 41.05 C40.8 41.08, 29.15 40.47, 10.26 41.05 M10.26 41.05 C2.74 40.12, -0.44 38.51, 0 30.79 M10.26 41.05 C2.04 42.98, -0.92 39.46, 0 30.79 M0 30.79 C-1.31 25.65, 1.03 22.01, 0 10.26 M0 30.79 C0.37 23, 0.82 14.45, 0 10.26 M0 10.26 C0.64 3.16, 2.87 -1.28, 10.26 0 M0 10.26 C-1.92 4.22, 3.29 -2.14, 10.26 0" stroke="#1e1e1e" stroke-width="1" fill="none"></path></g><g transform="translate(683.6288144067602 312.3831085824065) rotate(0 17.89314270019537 15.461864216724905)"><text x="17.893142700195312" y="0" font-family="Virgil, Segoe UI Emoji" font-size="8.246327582253294px" fill="#1e1e1e" text-anchor="middle" style="white-space: pre;" direction="ltr" dominant-baseline="text-before-edge">Caddy </text><text x="17.893142700195312" y="10.307909477816617" font-family="Virgil, Segoe UI Emoji" font-size="8.246327582253294px" fill="#1e1e1e" text-anchor="middle" style="white-space: pre;" direction="ltr" dominant-baseline="text-before-edge">(HTTPS </text><text x="17.893142700195312" y="20.615818955633234" font-family="Virgil, Segoe UI Emoji" font-size="8.246327582253294px" fill="#1e1e1e" text-anchor="middle" style="white-space: pre;" direction="ltr" dominant-baseline="text-before-edge">WebUI)</text></g></svg>